<?xml version="1.0" encoding="utf-8"?>
<svg xmlns="http://www.w3.org/2000/svg" width="170" height="170" viewBox="0 0 170 170">
    <g fill="none" fill-rule="nonzero">
        <rect width="170" height="170" fill="#F00" rx="29.94"/>
        <path fill="#FFF" d="M85 17c18.777 0 35.778 7.611 48.083 19.917C145.388 49.222 153 66.223 153 85c0 18.777-7.612 35.777-19.917 48.082C120.778 145.388 103.777 153 85 153c-18.777 0-35.777-7.612-48.082-19.918C24.612 120.777 17 103.777 17 85s7.612-35.778 19.918-48.083C49.223 24.61 66.223 17 85 17zm0 11.234c-15.676 0-29.868 6.354-40.14 16.626C34.589 55.132 28.235 69.324 28.235 85c0 15.676 6.354 29.868 16.627 40.14 10.271 10.272 24.463 16.626 40.14 16.626 15.675 0 29.867-6.354 40.139-16.627 10.273-10.271 16.627-24.463 16.627-40.14 0-15.675-6.354-29.867-16.627-40.139C114.868 34.588 100.676 28.234 85 28.234zm2.17 17.712c3.833 0 7.16.651 9.98 1.953 2.82 1.302 5.207 2.712 7.16 4.23a33.17 33.17 0 0 1 5.641 6.293l-9.763 7.051c-1.085-1.446-2.242-2.712-3.472-3.797a25.662 25.662 0 0 0-3.905-2.657c-1.374-.76-2.893-1.14-4.557-1.14-3.254 0-5.876.94-7.865 2.821-1.988 1.88-2.982 4.195-2.982 6.943 0 2.17.83 3.978 2.494 5.424 1.664 1.446 3.743 2.784 6.238 4.014a197.45 197.45 0 0 0 8.082 3.742 43.335 43.335 0 0 1 8.082 4.61 24.17 24.17 0 0 1 6.238 6.618c1.663 2.604 2.495 5.859 2.495 9.764 0 2.82-.633 5.57-1.898 8.245-1.266 2.675-3.038 5.044-5.316 7.105-2.278 2.062-4.972 3.725-8.082 4.99-3.11 1.266-6.509 1.899-10.197 1.899-4.629 0-8.607-.796-11.933-2.386-3.327-1.592-6.076-3.327-8.245-5.208a33.701 33.701 0 0 1-6.4-7.593l9.762-7.052c1.23 1.953 2.64 3.652 4.231 5.098a21.253 21.253 0 0 0 4.99 3.69c1.88 1.012 4.051 1.518 6.51 1.518 1.88 0 3.615-.307 5.207-.923 1.591-.614 2.965-1.446 4.122-2.494a11.533 11.533 0 0 0 2.712-3.634 10.01 10.01 0 0 0 .977-4.34c0-2.17-.832-3.977-2.496-5.424-1.663-1.447-3.742-2.784-6.237-4.014a197.627 197.627 0 0 0-8.082-3.743 43.342 43.342 0 0 1-8.082-4.61 24.18 24.18 0 0 1-6.238-6.617c-1.663-2.604-2.495-5.858-2.495-9.764 0-2.604.597-5.135 1.79-7.594 1.193-2.458 2.856-4.646 4.99-6.563 2.134-1.917 4.61-3.471 7.431-4.665 2.82-1.193 5.858-1.79 9.113-1.79z"/>
    </g>
</svg>
