<svg version="1.2" xmlns="http://www.w3.org/2000/svg" viewBox="0 0 502 64" width="502" height="64">
	<defs>
		<clipPath clipPathUnits="userSpaceOnUse" id="cp1">
			<path d="m0 0h502v64h-502z"/>
		</clipPath>
	</defs>
	<style>
		.s0 { fill: #ff0000 } 
	</style>
	<g id="Page 1" clip-path="url(#cp1)">
		<path id="Path 1" class="s0" d="m30.49 3.91c3.57 1.82 6.66 4.5 9.13 7.72q-3.48 2.64-6.96 5.28c-2.9-2.18-5.5-5.46-9.44-5.54-5.2-0.6-9.88 5.38-7.37 10.2 5.73 6.02 14.92 7.18 20.5 13.44 4.85 4.6 5.17 12.58 1.67 18.06-4.32 7.14-14.04 10.52-21.97 8.49-5.87-1.51-10.59-5.79-14.78-10.09v-0.64c2.32-1.86 4.53-3.82 6.81-5.72 3.68 3.38 7.44 8.5 13.1 7.72 5.3-0.1 10.2-5.3 8.72-10.7-3.27-4.62-9.1-6.16-13.77-8.92-4.26-2.05-8.33-5.54-10.18-9.9-4.34-10.19 5.57-20.59 15.48-21.38q4.45-0.36 9.06 1.98zm109.27-1.8h1.54c10.19 11.74 19.86 23.94 30.14 35.62 0.24-11.32 0.05-22.62 0.11-33.94q4.88 0 9.76 0c0.04 19.44 0 38.88 0.03 58.32h-1.54c-10.22-11.76-19.86-23.98-30.18-35.64-0.17 11.32-0.04 22.64-0.08 33.96q-4.9 0-9.77 0-0.02-29.16-0.01-58.32zm202.95 0.37c6.6 1.37 12.43 5.06 17.27 9.73-2.54 2.16-5.25 4.1-8.03 5.92-4.4-4.22-10.22-7.92-16.61-6.58-11.03 1.86-18.08 14.12-15.72 24.74 1.56 9.16 10.04 17.4 19.69 16.54 7.91-0.62 13.89-7.04 16.42-14.18q-5.69-0.02-11.35-0.02-0.04-4.48-0.04-8.92 11.36-0.04 22.71 0.04c0.72 14.7-9.43 29.1-23.98 31.99-2.9 0.57-7.01 0.55-9.97-0.01-13.72-2.53-24.44-15.64-24.02-29.68-0.37-14.32 10.82-27.6 24.93-29.72 2.6-0.39 6.08-0.38 8.7 0.15zm-274.83 1.33q4.86 0 9.75-0.04c0.14 12.2-0.18 24.4 0.13 36.58-0.28 5.76 3.58 11.96 9.72 12.46 6.25 0.54 11.25-5.38 11.2-11.36 0.45-12.58 0-25.18 0.17-37.78q4.96 0.23 9.88 0.38c-0.43 13.24 0.35 26.5-0.38 39.7-0.56 7.07-5.12 12.95-11.15 16.27-5.17 2.84-11.65 3-16.97 0.44-6.47-3.12-11.43-9.25-12.05-16.59-0.74-13.34-0.09-26.7-0.3-40.06zm145.02-0.08c3.26 0.06 6.54 0.1 9.82 0.24-0.17 15.7 0.09 31.4-0.14 47.1 7.22 0.4 14.46 0.16 21.68 0.2q0.04 4.62-0.18 9.24c-10.4-0.14-20.81-0.02-31.18-0.08q-0.03-28.35 0-56.7zm58.44 0.06q4.86 0 9.75 0 0.04 28.32 0 56.64-4.89 0-9.75 0-0.04-28.32 0-56.64zm123.42-0.06c3.28-0.02 6.58 0.12 9.86 0.36-0.22 8.4 0.08 16.8-0.26 25.2 7.37 0.64 14.77 0.22 22.18 0.32 0-8.6-0.02-17.2 0-25.8q4.78-0.04 9.55-0.1c0.27 18.94 0.53 37.94-0.11 56.86q-4.74-0.12-9.44-0.18c-0.02-7.2 0-14.4 0-21.6-7.41 0.1-14.81-0.34-22.18 0.32 0.26 7 0.09 14 0.26 21.02-3.28 0.24-6.58 0.4-9.86 0.34q-0.04-28.35 0-56.74zm68.22 0.06c12.75-0.02 25.54 0 38.29 0v9.16c-4.69-0.02-9.37-0.02-14.05-0.08-0.45 15.84-0.09 31.7-0.2 47.56q-4.9 0-9.76 0c-0.08-15.84 0.05-31.68-0.08-47.52q-7.12 0.02-14.2 0.02 0-4.57 0-9.14z"/>
	</g>
</svg>